<?xml version="1.0" encoding="utf-8"?>
<!-- Generator: Adobe Illustrator 21.0.0, SVG Export Plug-In . SVG Version: 6.00 Build 0)  -->
<svg version="1.1" id="Capa_1" xmlns="http://www.w3.org/2000/svg" xmlns:xlink="http://www.w3.org/1999/xlink" x="0px" y="0px"
	 viewBox="0 0 35.5 35.5" style="enable-background:new 0 0 35.5 35.5;" xml:space="preserve">
<style type="text/css">
	.st0{fill:#FFFFFF;}
</style>
<g id="Delete__x2F__Trash">
	<path class="st0" d="M8.7,32.6c0,0,0.5,2.3,3.1,2.3h11.9c2.6,0,3.1-2.3,3.1-2.3l2.3-22.8H6.3L8.7,32.6z M22.3,13.2
		c0-0.6,0.5-1.1,1.1-1.1c0.6,0,1.1,0.5,1.1,1.1l-1.1,17.2c0,0.6-0.5,1.1-1.1,1.1c-0.6,0-1.1-0.5-1.1-1.1L22.3,13.2z M16.6,13.2
		c0-0.6,0.5-1.1,1.1-1.1c0.6,0,1.1,0.5,1.1,1.1v17.2c0,0.6-0.5,1.1-1.1,1.1c-0.6,0-1.1-0.5-1.1-1.1C16.6,30.4,16.6,13.2,16.6,13.2z
		 M12,12c0.6,0,1.1,0.5,1.1,1.1l1.1,17.2c0,0.6-0.5,1.1-1.1,1.1c-0.6,0-1.1-0.5-1.1-1.1l-1.1-17.2C10.9,12.6,11.4,12,12,12z
		 M28.5,5.2h-5V2.9c0-1.7-0.6-2.3-2.3-2.3h-6.9c-1.6,0-2.3,0.8-2.3,2.3v2.3H7c-1,0-1.8,0.8-1.8,1.7C5.2,7.8,6,8.6,7,8.6h21.5
		c1,0,1.8-0.8,1.8-1.7C30.4,5.9,29.5,5.2,28.5,5.2z M21.2,5.2h-6.9l0-2.3h6.9L21.2,5.2L21.2,5.2z"/>
</g>
</svg>
